<svg width="118" height="20" viewBox="0 0 118 20" fill="none" xmlns="http://www.w3.org/2000/svg">
<path d="M10.9858 6.56534H14.5227C14.4716 3.45454 11.9148 1.30682 8.02841 1.30682C4.2017 1.30682 1.39773 3.42045 1.41477 6.59091C1.40625 9.16477 3.22159 10.6392 6.17045 11.3466L8.07102 11.8239C9.97159 12.2841 11.0284 12.8295 11.0369 14.0057C11.0284 15.2841 9.81818 16.1534 7.94318 16.1534C6.02557 16.1534 4.64489 15.267 4.52557 13.5199H0.954545C1.0483 17.2955 3.75 19.2472 7.9858 19.2472C12.2472 19.2472 14.7528 17.2102 14.7614 14.0142C14.7528 11.108 12.5625 9.56534 9.52841 8.88352L7.96023 8.50852C6.44318 8.15909 5.1733 7.59659 5.19886 6.34375C5.19886 5.21875 6.19602 4.39204 8.00284 4.39204C9.76705 4.39204 10.8494 5.19318 10.9858 6.56534ZM20.9084 19.2472C22.843 19.2472 24.0959 18.4034 24.7351 17.1847H24.8374V19H28.2805V10.1705C28.2805 7.05114 25.6385 5.73864 22.7237 5.73864C19.5874 5.73864 17.5249 7.23864 17.022 9.625L20.38 9.89773C20.6271 9.02841 21.4027 8.3892 22.7067 8.3892C23.9425 8.3892 24.6499 9.01136 24.6499 10.0852V10.1364C24.6499 10.9801 23.755 11.0909 21.4794 11.3125C18.8885 11.5511 16.5618 12.4205 16.5618 15.3438C16.5618 17.9347 18.4112 19.2472 20.9084 19.2472ZM21.9482 16.7415C20.8317 16.7415 20.0305 16.2216 20.0305 15.2244C20.0305 14.2017 20.8743 13.6989 22.1527 13.5199C22.9453 13.4091 24.2408 13.2216 24.6754 12.9318V14.321C24.6754 15.6932 23.5419 16.7415 21.9482 16.7415ZM38.1371 5.90909H35.5376V5.03125C35.5376 4.14489 35.8956 3.625 36.9609 3.625C37.3956 3.625 37.8388 3.71875 38.1286 3.8125L38.7678 1.08523C38.3161 0.948864 37.3189 0.727272 36.2024 0.727272C33.7393 0.727272 31.907 2.11648 31.907 4.96307V5.90909H30.0575V8.63636H31.907V19H35.5376V8.63636H38.1371V5.90909ZM45.8523 19.2557C49.0909 19.2557 51.2727 17.679 51.7841 15.25L48.4261 15.0284C48.0597 16.0256 47.1222 16.5455 45.9119 16.5455C44.0966 16.5455 42.946 15.3438 42.946 13.392V13.3835H51.8608V12.3864C51.8608 7.9375 49.1676 5.73864 45.7074 5.73864C41.8551 5.73864 39.358 8.47443 39.358 12.5142C39.358 16.6648 41.821 19.2557 45.8523 19.2557ZM42.946 11.1335C43.0227 9.64205 44.1562 8.44886 45.767 8.44886C47.3438 8.44886 48.4347 9.57386 48.4432 11.1335H42.946ZM59.1882 4.58807H64.532V19H68.1797V4.58807H73.5234V1.54545H59.1882V4.58807ZM79.8324 19.2557C83.804 19.2557 86.2756 16.5369 86.2756 12.5057C86.2756 8.44886 83.804 5.73864 79.8324 5.73864C75.8608 5.73864 73.3892 8.44886 73.3892 12.5057C73.3892 16.5369 75.8608 19.2557 79.8324 19.2557ZM79.8494 16.4432C78.017 16.4432 77.0795 14.7642 77.0795 12.4801C77.0795 10.196 78.017 8.50852 79.8494 8.50852C81.6477 8.50852 82.5852 10.196 82.5852 12.4801C82.5852 14.7642 81.6477 16.4432 79.8494 16.4432ZM97.0312 13.4261C97.0398 15.1818 95.8381 16.1023 94.5341 16.1023C93.1619 16.1023 92.2756 15.1392 92.267 13.5966V5.90909H88.6364V14.2443C88.6449 17.304 90.4347 19.1705 93.0682 19.1705C95.0369 19.1705 96.4517 18.1562 97.0398 16.6222H97.1761V19H100.662V5.90909H97.0312V13.4261ZM103.566 19H107.197V11.5938C107.197 9.98295 108.373 8.875 109.975 8.875C110.478 8.875 111.168 8.96023 111.509 9.07102V5.84943C111.185 5.77273 110.734 5.72159 110.367 5.72159C108.901 5.72159 107.7 6.57386 107.222 8.19318H107.086V5.90909H103.566V19Z" fill="#212832"/>
<path d="M115.509 19.2216C116.599 19.2216 117.545 18.3097 117.554 17.1761C117.545 16.0597 116.599 15.1477 115.509 15.1477C114.384 15.1477 113.455 16.0597 113.463 17.1761C113.455 18.3097 114.384 19.2216 115.509 19.2216Z" fill="#FF7B29"/>
</svg>
